<svg width="734" height="200" viewBox="0 0 734 200" fill="none" xmlns="http://www.w3.org/2000/svg">
<path d="M281.596 145H257.532V100.2H248.828V80.488H258.044C260.604 68.328 272.508 59.24 293.628 59.24H298.748V76.392H289.788C283.132 76.392 279.932 77.032 280.06 80.488H298.748V100.2H281.596V145ZM327.932 74.6H303.868V59.24H327.932V74.6ZM327.932 145H303.868V80.488H327.932V145ZM364.325 137.832C345.125 137.832 334.373 126.824 334.373 108.392C334.373 90.216 345.893 79.208 364.965 79.208C378.021 79.208 386.725 84.456 388.517 95.592H389.797V80.488H412.325V134.12C412.325 157.16 398.629 168.04 373.797 168.04C351.269 168.04 338.213 158.568 338.213 141.672H362.277C362.277 146.92 362.917 148.2 375.461 148.2C385.829 148.2 388.261 146.664 388.261 135.784V122.216H386.981C385.317 131.56 378.533 137.832 364.325 137.832ZM358.693 108.392C358.693 114.792 361.765 117.224 373.029 117.224C383.781 117.224 388.261 115.944 388.261 109.16V108.264C388.261 101.352 383.781 99.944 373.029 99.944C361.765 99.944 358.693 102.12 358.693 108.392ZM468.284 145H451.388C435.26 145 425.66 137.192 425.66 120.424V100.2H416.188V80.488H425.66V69.352H449.724V80.488H468.284V100.2H449.724V116.968C449.724 122.088 451.26 123.368 456.764 123.368H468.284V145ZM498.092 145H474.028V80.488H496.556V97.384H497.836C499.628 86.76 506.284 79.208 519.084 79.208C533.292 79.208 538.924 88.552 538.924 101.48V114.28H514.86V106.728C514.86 101.352 512.812 99.432 506.54 99.432C500.012 99.432 498.092 101.352 498.092 106.472V145ZM579.996 146.28C558.108 146.28 542.748 136.936 542.748 112.744C542.748 91.752 557.98 79.208 579.484 79.208C601.756 79.208 615.964 90.344 615.964 111.08C615.964 113.256 615.836 114.92 615.58 117.224H565.02C565.404 125.032 568.86 127.208 579.1 127.208C588.828 127.208 591.388 125.544 591.388 121.704V120.296H615.451V121.832C615.451 136.168 601.756 146.28 579.996 146.28ZM578.972 97.64C570.14 97.64 566.428 99.56 565.404 105.064H592.668C591.772 99.56 587.932 97.64 578.972 97.64ZM658.371 146.28C636.483 146.28 621.123 136.936 621.123 112.744C621.123 91.752 636.355 79.208 657.859 79.208C680.131 79.208 694.339 90.344 694.339 111.08C694.339 113.256 694.211 114.92 693.955 117.224H643.395C643.779 125.032 647.235 127.208 657.475 127.208C667.203 127.208 669.763 125.544 669.763 121.704V120.296H693.826V121.832C693.826 136.168 680.131 146.28 658.371 146.28ZM657.347 97.64C648.515 97.64 644.803 99.56 643.779 105.064H671.043C670.147 99.56 666.307 97.64 657.347 97.64Z" fill="black"/>
<path d="M710.058 146.664C707.839 146.664 705.94 145.896 704.362 144.36C702.826 142.781 702.058 140.861 702.058 138.6C702.058 136.424 702.826 134.547 704.362 132.968C705.94 131.389 707.839 130.6 710.058 130.6C712.276 130.6 714.175 131.389 715.753 132.968C717.332 134.547 718.122 136.424 718.122 138.6C718.122 140.861 717.332 142.781 715.753 144.36C714.175 145.896 712.276 146.664 710.058 146.664Z" fill="#00BF63"/>
<rect width="200" height="200" rx="46" fill="#201B21"/>
<path d="M150.608 116.471H156.8L148.703 108.057C137.113 95.9905 121.078 89.1636 104.249 89.1636H102.343H98.2155H96.1516C79.4812 89.1636 63.4458 95.9905 51.6972 108.057L43.6001 116.471H49.792C66.4624 116.471 82.4977 109.644 94.2464 97.5782L100.279 91.3863C96.7866 112.661 66.4624 146.319 66.4624 146.319H100.438H134.414C134.414 146.319 104.407 113.137 100.597 91.8626L106.154 97.7369C117.744 109.644 133.779 116.471 150.608 116.471Z" fill="white"/>
<path d="M95.1949 76.7806L100.117 71.7001L105.038 76.7806C114.564 86.7829 127.901 92.3397 141.713 92.3397H146.794L140.126 85.354C130.6 75.3517 117.263 69.7949 103.451 69.7949H101.863H98.3702H96.7825C82.9699 69.7949 69.7923 75.3517 60.1076 85.354L53.4395 92.4984H58.52C72.3326 92.4984 85.6689 86.7829 95.1949 76.7806Z" fill="white"/>
<path d="M96.1487 59.3155L100.118 55.1876L104.087 59.3155C111.867 67.4126 122.663 72.0168 133.935 72.0168H138.063L132.665 66.3012C124.885 58.2042 114.089 53.6 102.817 53.6H101.547H98.689H97.4189C86.1465 53.6 75.3504 58.2042 67.5709 66.3012L62.1729 72.0168H66.3008C77.5731 72.0168 88.3692 67.4126 96.1487 59.3155Z" fill="white"/>
</svg>
