<svg width="33" height="31" viewBox="0 0 33 31" fill="none" xmlns="http://www.w3.org/2000/svg">
<path d="M31.7458 26.537C31.2869 27.5695 30.5601 28.4759 29.6325 29.1722C28.9545 29.6761 28.1831 30.056 27.3577 30.2924C26.076 30.5851 24.7586 30.7136 23.4407 30.6743H8.91679C7.60334 30.7144 6.2902 30.586 5.01324 30.2924C4.17794 30.0601 3.39686 29.6799 2.71149 29.1722C1.81108 28.4963 1.09938 27.6221 0.638574 26.6261C0.141756 25.1988 -0.0682538 23.6963 0.0193896 22.1959V8.42187C-0.052211 6.95044 0.16222 5.47909 0.652034 4.08085C1.10526 3.07698 1.8125 2.19389 2.71149 1.50934C3.39283 1.00293 4.16921 0.622842 4.99978 0.389082C6.27673 0.0955014 7.58988 -0.0329711 8.90334 0.00717453H23.4811C24.7989 -0.0320966 26.1164 0.0963562 27.3981 0.389082C28.2092 0.629763 28.9667 1.0095 29.6325 1.50934C30.533 2.18523 31.2446 3.05937 31.7054 4.05539C32.194 5.46249 32.4039 6.94274 32.3247 8.42187V22.1959C32.4136 23.6643 32.2174 25.1355 31.7458 26.537Z" fill="url(#paint0_linear_191_1024)"/>
<path d="M18.9084 18.4172C18.7991 18.0405 18.4962 17.7523 18.162 17.547C17.9291 17.4038 17.6788 17.2864 17.416 17.1974C16.9638 17.0444 16.4838 16.9787 16.0042 17.0042C15.5297 16.9825 15.0552 17.05 14.6084 17.2031C14.1616 17.356 13.7515 17.5913 13.4016 17.8954C13.1233 18.1559 12.9535 18.5023 12.923 18.8715C12.8285 19.7274 12.8285 20.5903 12.923 21.4461C13.0127 22.4929 13.1922 23.8792 13.4315 25.2938C13.5255 25.9479 13.6653 26.5954 13.8503 27.2318C14.0164 27.6176 14.3102 27.942 14.6878 28.1562C15.4423 28.5843 16.4521 28.5835 17.2079 28.1578C17.5881 27.9436 17.8847 27.6188 18.0534 27.2318C18.2384 26.5954 18.3783 25.9479 18.4722 25.2938C18.6966 23.8792 18.8761 22.4646 18.9658 21.4461C19.0434 20.7435 19.0573 20.0361 19.0075 19.3317C18.9858 19.0248 18.9942 18.7128 18.9084 18.4172ZM13.1024 13.0999C13.1024 13.6594 13.2779 14.2065 13.6066 14.6717C13.9353 15.137 14.4026 15.4996 14.9492 15.7138C15.4958 15.9279 16.0973 15.9839 16.6776 15.8747C17.2579 15.7656 17.7909 15.4961 18.2093 15.1004C18.6276 14.7048 18.9126 14.2006 19.028 13.6519C19.1435 13.103 19.0842 12.5341 18.8577 12.0172C18.6313 11.5002 18.2479 11.0583 17.7559 10.7474C17.264 10.4366 16.6856 10.2707 16.0939 10.2707C15.3006 10.2707 14.5396 10.5688 13.9787 11.0994C13.4177 11.6299 13.1024 12.3495 13.1024 13.0999ZM16.0042 2.10836C13.0227 2.12132 10.1417 3.12954 7.86945 4.95524C5.59716 6.78092 4.0795 9.30681 3.58411 12.0874C3.08873 14.8681 3.64743 17.7248 5.1617 20.1539C6.67596 22.583 9.04854 24.4283 11.861 25.3646C11.8892 25.3717 11.919 25.3722 11.9475 25.3659C11.9761 25.3597 12.0025 25.3469 12.0246 25.3288C12.0468 25.3106 12.0639 25.2877 12.0744 25.2619C12.0851 25.236 12.0888 25.2082 12.0854 25.1807C12.0106 24.7704 11.9507 24.3602 11.8908 23.9641C11.8849 23.8928 11.858 23.8245 11.813 23.767C11.7681 23.7094 11.707 23.665 11.6366 23.6387C9.31976 22.666 7.42738 20.9689 6.27754 18.8323C5.1277 16.6957 4.79042 14.25 5.32237 11.906C5.85432 9.56201 7.22308 7.46257 9.19874 5.96042C11.1743 4.45827 13.6364 3.64494 16.1713 3.65709C18.7061 3.66925 21.1593 4.50613 23.1188 6.02713C25.0782 7.54814 26.4243 9.66063 26.9312 12.0096C27.438 14.3585 27.0746 16.801 25.9019 18.9264C24.7292 21.0518 22.8187 22.7308 20.4916 23.6812C20.4212 23.7075 20.36 23.7519 20.3151 23.8094C20.2702 23.867 20.2432 23.9352 20.2373 24.0065C20.2373 24.4026 20.1176 24.8129 20.0428 25.2231C20.0394 25.2506 20.0431 25.2785 20.0537 25.3043C20.0642 25.3302 20.0814 25.3531 20.1035 25.3712C20.1256 25.3894 20.1521 25.4021 20.1806 25.4083C20.2091 25.4146 20.2389 25.4141 20.2672 25.407C23.1226 24.4902 25.5381 22.6392 27.0785 20.1875C28.6187 17.7356 29.1825 14.8442 28.6684 12.034C28.1542 9.22378 26.5958 6.67967 24.274 4.8599C21.9521 3.04012 19.0194 2.06435 16.0042 2.10836ZM15.7799 7.59701C17.1759 7.54514 18.5554 7.89813 19.7333 8.60873C20.9111 9.31934 21.8311 10.3535 22.3698 11.5726C22.9085 12.7917 23.0403 14.1376 22.7473 15.4295C22.4544 16.7215 21.7508 17.8978 20.7309 18.8008C20.6771 18.8532 20.6348 18.9152 20.6066 18.9832C20.5783 19.0512 20.5647 19.1238 20.5664 19.1969C20.5985 19.6679 20.5985 20.1404 20.5664 20.6115C20.5674 20.6408 20.5764 20.6694 20.5925 20.6944C20.6087 20.7195 20.6314 20.7401 20.6585 20.7544C20.6857 20.7686 20.7163 20.776 20.7472 20.7757C20.7783 20.7754 20.8087 20.7676 20.8356 20.753C22.3346 19.7881 23.4673 18.3942 24.0673 16.7759C24.6673 15.1576 24.7031 13.4 24.1694 11.761C23.6356 10.1221 22.5604 8.68803 21.1017 7.66942C19.6429 6.65074 17.8774 6.10108 16.0641 6.10108C14.2508 6.10108 12.4852 6.65074 11.0265 7.66942C9.56771 8.68803 8.49257 10.1221 7.95881 11.761C7.42507 13.4 7.46082 15.1576 8.06083 16.7759C8.66081 18.3942 9.79351 19.7881 11.2926 20.753C11.3182 20.7688 11.3481 20.7776 11.3788 20.7783C11.4095 20.7791 11.4398 20.7716 11.4662 20.7569C11.4926 20.7422 11.5143 20.7208 11.5285 20.6951C11.5427 20.6694 11.5491 20.6404 11.5468 20.6115C11.5468 20.1305 11.5468 19.692 11.5468 19.1969C11.5546 19.1232 11.5437 19.0489 11.5151 18.98C11.4865 18.9112 11.441 18.8497 11.3823 18.8008C10.3993 17.9203 9.71349 16.7847 9.4111 15.5366C9.1087 14.2885 9.20325 12.9837 9.68281 11.7863C10.1624 10.5889 11.0056 9.55235 12.1064 8.80693C13.2072 8.0616 14.5165 7.64063 15.8697 7.59701H15.7799Z" fill="white"/>
<defs>
<linearGradient id="paint0_linear_191_1024" x1="16.199" y1="0.00717453" x2="16.199" y2="30.6106" gradientUnits="userSpaceOnUse">
<stop stop-color="#F452FF"/>
<stop offset="1" stop-color="#832BC1"/>
</linearGradient>
</defs>
</svg>
