<svg width="32" height="32" viewBox="0 0 32 32" fill="none" xmlns="http://www.w3.org/2000/svg">
<g clip-path="url(#clip0_191_1073)">
<path d="M31.992 8.16511C32.0023 7.18249 31.8949 6.20218 31.672 5.24511C31.2493 3.49844 30.256 2.16511 28.7653 1.18777C28.005 0.699548 27.1537 0.370271 26.2627 0.219775C25.5735 0.101102 24.8765 0.0342481 24.1773 0.0197747C24.124 0.0157747 24.0667 0.00644141 24.012 0.00244141H7.98133C7.77867 0.0157747 7.57733 0.0251081 7.37467 0.0371081C6.37867 0.0944414 5.388 0.201108 4.45067 0.570441C2.66933 1.27711 1.384 2.50644 0.630667 4.27711C0.374667 4.87444 0.241333 5.51044 0.146667 6.15444C0.0729663 6.676 0.0284525 7.20126 0.0133333 7.72778C0.0133333 7.77044 0.004 7.81044 0 7.85178V24.1491C0.0133333 24.3358 0.0226667 24.5264 0.036 24.7144C0.102667 25.8011 0.241333 26.8798 0.698667 27.8784C1.56533 29.7718 3.016 31.0158 5.01067 31.6131C5.57067 31.7824 6.152 31.8624 6.73467 31.9171C7.47467 31.9878 8.21467 31.9971 8.95733 31.9971H23.664C24.3639 31.9967 25.063 31.9521 25.7573 31.8638C26.8533 31.7224 27.8853 31.3971 28.8173 30.7838C29.9228 30.0692 30.7943 29.0461 31.324 27.8411C31.572 27.2811 31.7147 26.6811 31.8173 26.0758C31.968 25.1758 32.0013 24.2651 32 23.3558C31.9973 18.2891 32 13.2291 31.996 8.16511H31.992ZM23.428 13.4851V21.1011C23.428 21.6571 23.3507 22.2038 23.1027 22.7091C22.716 23.4958 22.0893 23.9918 21.252 24.2291C20.7853 24.3624 20.3107 24.4384 19.8253 24.4598C18.5587 24.5198 17.4613 23.6598 17.2347 22.4118C17.1395 21.8729 17.2232 21.3177 17.4731 20.8309C17.723 20.3442 18.1253 19.9525 18.6187 19.7158C19.0493 19.5024 19.512 19.3824 19.976 19.2838C20.48 19.1744 20.9867 19.0798 21.488 18.9638C21.8533 18.8798 22.0973 18.6571 22.168 18.2758C22.1861 18.1912 22.195 18.1049 22.1947 18.0184C22.1947 15.5984 22.1947 13.1784 22.192 10.7611C22.1911 10.6777 22.1795 10.5948 22.1573 10.5144C22.104 10.3144 21.9573 10.1904 21.752 10.2024C21.5387 10.2158 21.328 10.2491 21.1187 10.2904C20.1053 10.4904 19.092 10.6944 18.0787 10.8984L14.9787 11.5251L13.1467 11.8958C13.1253 11.8998 13.104 11.9091 13.0827 11.9131C12.7133 12.0158 12.58 12.1838 12.5627 12.5664C12.56 12.6224 12.5627 12.6811 12.5627 12.7398C12.56 16.2091 12.5627 19.6784 12.5587 23.1464C12.5587 23.7064 12.496 24.2611 12.272 24.7824C11.9013 25.6358 11.2453 26.1691 10.36 26.4264C9.89333 26.5598 9.41333 26.6398 8.92667 26.6558C7.64667 26.7038 6.58667 25.8558 6.36667 24.5971C6.18 23.5144 6.67333 22.3504 7.90533 21.8304C8.38133 21.6304 8.87867 21.5211 9.38267 21.4171C9.76533 21.3371 10.1493 21.2624 10.5293 21.1811C11.04 21.0704 11.3067 20.7504 11.3293 20.2291V20.0291C11.3293 16.0824 11.3293 12.1331 11.332 8.18644C11.332 8.02244 11.3493 7.85311 11.388 7.69311C11.4813 7.31311 11.752 7.09578 12.116 7.00244C12.456 6.91444 12.8027 6.85311 13.148 6.78244C14.1253 6.58244 15.1027 6.38778 16.0813 6.19044L19.108 5.57711C20.0013 5.39844 20.8947 5.21711 21.788 5.03977C22.0813 4.98244 22.3773 4.92244 22.672 4.89844C23.0853 4.86511 23.3693 5.12511 23.4107 5.54111C23.4213 5.63844 23.4267 5.73844 23.4267 5.83844C23.4293 8.38511 23.4293 10.9344 23.4267 13.4811L23.428 13.4851Z" fill="#FF5757"/>
</g>
<defs>
<clipPath id="clip0_191_1073">
<rect width="32" height="32" fill="white"/>
</clipPath>
</defs>
</svg>
