<svg width="24" height="24" viewBox="0 0 24 24" fill="none" xmlns="http://www.w3.org/2000/svg">
<rect opacity="0.01" y="24" width="24" height="24" transform="rotate(-90 0 24)" fill="#00BF63"/>
<path d="M10.0058 17.0158C9.74 17.0173 9.48452 16.913 9.2958 16.7258C9.10649 16.538 9 16.2824 9 16.0158C9 15.7492 9.10649 15.4936 9.2958 15.3058L12.6058 12.0158L9.4258 8.7058C9.03807 8.31576 9.03807 7.68584 9.4258 7.2958C9.61356 7.10649 9.86916 7 10.1358 7C10.4024 7 10.658 7.10649 10.8458 7.2958L14.7058 11.2958C15.0869 11.6846 15.0869 12.307 14.7058 12.6958L10.7058 16.6958C10.5245 16.8916 10.2725 17.0068 10.0058 17.0158Z" fill="#00BF63"/>
</svg>
