<svg width="24" height="24" viewBox="0 0 24 24" fill="none" xmlns="http://www.w3.org/2000/svg">
<rect opacity="0.01" x="24" y="24" width="24" height="24" transform="rotate(180 24 24)" fill="#049F54"/>
<path d="M3.2403 7.28991L11.7603 11.9199C11.9103 11.9999 12.0903 11.9999 12.2403 11.9199L20.7603 7.28991C20.9192 7.21142 21.0156 7.04521 21.0046 6.86828C20.9937 6.69135 20.8777 6.53826 20.7103 6.47991L12.1903 2.99991C12.0686 2.9499 11.932 2.9499 11.8103 2.99991L3.2903 6.47991C3.12291 6.53826 3.00688 6.69135 2.99596 6.86828C2.98504 7.04521 3.08135 7.21142 3.2403 7.28991Z" fill="#049F54"/>
<path d="M20.7101 10.6599L18.8801 9.87988L12.2401 13.4899C12.0901 13.5699 11.9101 13.5699 11.7601 13.4899L5.1201 9.87988L3.2901 10.6599C3.13214 10.7428 3.0332 10.9065 3.0332 11.0849C3.0332 11.2633 3.13214 11.427 3.2901 11.5099L11.8101 16.4099C11.9574 16.5 12.1428 16.5 12.2901 16.4099L20.8101 11.5099C20.9605 11.4098 21.042 11.2337 21.0209 11.0542C20.9998 10.8747 20.8797 10.7224 20.7101 10.6599V10.6599Z" fill="#049F54"/>
<path d="M20.7098 15.0999L19.1498 14.4199L12.2398 18.1799C12.0898 18.2599 11.9098 18.2599 11.7598 18.1799L4.84984 14.4199L3.28984 15.0999C3.12737 15.1842 3.02539 15.3519 3.02539 15.5349C3.02539 15.7179 3.12737 15.8857 3.28984 15.9699L11.8098 20.9699C11.9598 21.0499 12.1398 21.0499 12.2898 20.9699L20.8098 15.9699C20.9648 15.8684 21.0493 15.6881 21.0281 15.5041C21.007 15.32 20.8838 15.1636 20.7098 15.0999Z" fill="#049F54"/>
</svg>
