<svg width="24" height="24" viewBox="0 0 24 24" fill="none" xmlns="http://www.w3.org/2000/svg">
<path d="M15.75 22H8.25M2 13.7336V6.26693C2 4.77345 2 4.02616 2.27248 3.45573C2.51217 2.95396 2.89434 2.54631 3.36475 2.29065C3.89953 2 4.60011 2 6.00024 2H18.0002C19.4004 2 20.0995 2 20.6342 2.29065C21.1046 2.54631 21.4881 2.95396 21.7278 3.45573C22 4.0256 22 4.77199 22 6.26255V13.7375C22 15.228 22 15.9733 21.7278 16.5432C21.4881 17.045 21.1046 17.454 20.6342 17.7096C20.1 18 19.4013 18 18.0039 18H5.99614C4.59874 18 3.899 18 3.36475 17.7096C2.89434 17.454 2.51217 17.045 2.27248 16.5432C2 15.9728 2 15.2271 2 13.7336ZM15.125 10L9.5 6V14L15.125 10Z" stroke="#049F54" stroke-width="2" stroke-linecap="round" stroke-linejoin="round"/>
</svg>
