<svg width="24" height="24" viewBox="0 0 24 24" fill="none" xmlns="http://www.w3.org/2000/svg">
<rect opacity="0.01" width="24" height="24" fill="#049F54"/>
<path d="M11.1096 23.0002C10.9936 23.0001 10.8786 22.9797 10.7696 22.9402C10.3368 22.7818 10.0684 22.3481 10.1196 21.8902L10.8896 14.8002H4.99956C4.62935 14.8007 4.28912 14.5967 4.11523 14.2699C3.94134 13.9431 3.96224 13.5469 4.16956 13.2402L12.0596 1.44019C12.3163 1.06025 12.7986 0.903618 13.2296 1.06019C13.643 1.2137 13.9071 1.61998 13.8796 2.06019L13.1096 9.20019H18.9996C19.3698 9.19963 19.71 9.40365 19.8839 9.73048C20.0578 10.0573 20.0369 10.4535 19.8296 10.7602L11.9396 22.5602C11.7533 22.8358 11.4422 23.0007 11.1096 23.0002V23.0002Z" fill="#049F54"/>
</svg>
