<svg width="176" height="58" viewBox="0 0 176 58" fill="none" xmlns="http://www.w3.org/2000/svg">
<path d="M75.2536 30.4637C75.2536 38.7919 68.7385 44.9289 60.7429 44.9289C52.7474 44.9289 46.2322 38.7919 46.2322 30.4637C46.2322 22.0767 52.7474 15.9984 60.7429 15.9984C68.7385 15.9984 75.2536 22.0767 75.2536 30.4637ZM68.9015 30.4637C68.9015 25.2593 65.1255 21.6984 60.7429 21.6984C56.3604 21.6984 52.5843 25.2593 52.5843 30.4637C52.5843 35.6158 56.3604 39.2289 60.7429 39.2289C65.1255 39.2289 68.9015 35.6093 68.9015 30.4637Z" fill="white"/>
<path d="M106.561 30.4637C106.561 38.7919 100.046 44.9289 92.0503 44.9289C84.0548 44.9289 77.5397 38.7919 77.5397 30.4637C77.5397 22.0832 84.0548 15.9984 92.0503 15.9984C100.046 15.9984 106.561 22.0767 106.561 30.4637ZM100.209 30.4637C100.209 25.2593 96.4329 21.6984 92.0503 21.6984C87.6678 21.6984 83.8918 25.2593 83.8918 30.4637C83.8918 35.6158 87.6678 39.2289 92.0503 39.2289C96.4329 39.2289 100.209 35.6093 100.209 30.4637Z" fill="white"/>
<path d="M136.558 16.8724V42.8419C136.558 53.5245 130.258 57.8876 122.811 57.8876C115.8 57.8876 111.58 53.1984 109.989 49.3637L115.52 47.0615C116.504 49.4158 118.917 52.1941 122.804 52.1941C127.572 52.1941 130.526 49.2528 130.526 43.7158V41.6354H130.304C128.882 43.3897 126.143 44.9224 122.687 44.9224C115.454 44.9224 108.828 38.6224 108.828 30.5158C108.828 22.3506 115.454 15.9984 122.687 15.9984C126.137 15.9984 128.876 17.531 130.304 19.2332H130.526V16.8789H136.558V16.8724ZM130.976 30.5158C130.976 25.4224 127.578 21.6984 123.254 21.6984C118.872 21.6984 115.2 25.4224 115.2 30.5158C115.2 35.5571 118.872 39.2289 123.254 39.2289C127.578 39.2289 130.976 35.5571 130.976 30.5158Z" fill="white"/>
<path d="M146.505 1.65117V44.0425H140.309V1.65117H146.505Z" fill="white"/>
<path d="M170.649 35.224L175.579 38.511C173.988 40.8653 170.153 44.9218 163.527 44.9218C155.31 44.9218 149.173 38.5697 149.173 30.4566C149.173 21.8544 155.362 15.9914 162.816 15.9914C170.323 15.9914 173.995 21.9653 175.195 25.1936L175.853 26.8371L156.517 34.8458C157.997 37.7479 160.299 39.2284 163.527 39.2284C166.762 39.2284 169.005 37.6371 170.649 35.224ZM155.473 30.0197L168.399 24.6523C167.688 22.8458 165.549 21.5871 163.032 21.5871C159.803 21.5871 155.31 24.4371 155.473 30.0197Z" fill="white"/>
<path d="M22.7801 26.7V20.563H43.4603C43.6625 21.6326 43.7668 22.8978 43.7668 24.2674C43.7668 28.8717 42.5082 34.5652 38.4517 38.6217C34.5061 42.7304 29.4648 44.9217 22.7867 44.9217C10.4086 44.9217 0 34.8391 0 22.4609C0 10.0826 10.4086 0 22.7867 0C29.6344 0 34.5126 2.68696 38.1778 6.18913L33.8474 10.5196C31.2192 8.05435 27.6583 6.13696 22.7801 6.13696C13.7411 6.13696 6.67166 13.4217 6.67166 22.4609C6.67166 31.5 13.7411 38.7848 22.7801 38.7848C28.6431 38.7848 31.9822 36.4304 34.1213 34.2913C35.8561 32.5565 36.9974 30.0783 37.4474 26.6935L22.7801 26.7Z" fill="white"/>
</svg>
