<svg width="33" height="31" viewBox="0 0 33 31" fill="none" xmlns="http://www.w3.org/2000/svg">
<path d="M14.252 9.58447V14.2338V16.0922V20.7414H18.3255V16.0922V14.2338V9.58447H14.252Z" fill="#FF7602"/>
<path d="M2.03673 16.2122C3.16158 16.2122 4.07345 15.3536 4.07345 14.2946C4.07345 13.2355 3.16158 12.377 2.03673 12.377C0.911874 12.377 0 13.2355 0 14.2946C0 15.3536 0.911874 16.2122 2.03673 16.2122Z" fill="#0066D9"/>
<path d="M2.03673 18.3044C3.16158 18.3044 4.07345 17.4459 4.07345 16.3868C4.07345 15.3278 3.16158 14.4692 2.03673 14.4692C0.911874 14.4692 0 15.3278 0 16.3868C0 17.4459 0.911874 18.3044 2.03673 18.3044Z" fill="#0066D9"/>
<path d="M4.07345 14.2949H0V16.3869H4.07345V14.2949Z" fill="#0066D9"/>
<path d="M30.5504 18.3044C31.6753 18.3044 32.5871 17.4459 32.5871 16.3868C32.5871 15.3278 31.6753 14.4692 30.5504 14.4692C29.4256 14.4692 28.5137 15.3278 28.5137 16.3868C28.5137 17.4459 29.4256 18.3044 30.5504 18.3044Z" fill="#4285F4"/>
<path d="M30.5504 16.2122C31.6753 16.2122 32.5871 15.3536 32.5871 14.2946C32.5871 13.2355 31.6753 12.377 30.5504 12.377C29.4256 12.377 28.5137 13.2355 28.5137 14.2946C28.5137 15.3536 29.4256 16.2122 30.5504 16.2122Z" fill="#4285F4"/>
<path d="M28.5137 16.3873H32.5871V14.2954H28.5137V16.3873Z" fill="#4285F4"/>
<path d="M9.07187 22.4885C10.1967 22.4885 11.1086 21.63 11.1086 20.5709C11.1086 19.5119 10.1967 18.6533 9.07187 18.6533C7.94702 18.6533 7.03516 19.5119 7.03516 20.5709C7.03516 21.63 7.94702 22.4885 9.07187 22.4885Z" fill="#EA4335"/>
<path d="M9.07187 24.5804C10.1967 24.5804 11.1086 23.7219 11.1086 22.6628C11.1086 21.6037 10.1967 20.7451 9.07187 20.7451C7.94702 20.7451 7.03516 21.6037 7.03516 22.6628C7.03516 23.7219 7.94702 24.5804 9.07187 24.5804Z" fill="#EA4335"/>
<path d="M11.1086 20.5713H7.03516V22.6632H11.1086V20.5713Z" fill="#EA4335"/>
<path d="M9.07187 9.93673C10.1967 9.93673 11.1086 9.0782 11.1086 8.01917C11.1086 6.9601 10.1967 6.10156 9.07187 6.10156C7.94702 6.10156 7.03516 6.9601 7.03516 8.01917C7.03516 9.0782 7.94702 9.93673 9.07187 9.93673Z" fill="#EA4335"/>
<path d="M9.07187 16.7351C10.1967 16.7351 11.1086 15.8766 11.1086 14.8175C11.1086 13.7584 10.1967 12.8999 9.07187 12.8999C7.94702 12.8999 7.03516 13.7584 7.03516 14.8175C7.03516 15.8766 7.94702 16.7351 9.07187 16.7351Z" fill="#EA4335"/>
<path d="M11.1086 8.01904H7.03516V14.8614H11.1086V8.01904Z" fill="#EA4335"/>
<path d="M23.5152 12.0286C24.64 12.0286 25.5519 11.17 25.5519 10.111C25.5519 9.0519 24.64 8.19336 23.5152 8.19336C22.3904 8.19336 21.4785 9.0519 21.4785 10.111C21.4785 11.17 22.3904 12.0286 23.5152 12.0286Z" fill="#34A853"/>
<path d="M23.5152 9.93673C24.64 9.93673 25.5519 9.0782 25.5519 8.01917C25.5519 6.9601 24.64 6.10156 23.5152 6.10156C22.3904 6.10156 21.4785 6.9601 21.4785 8.01917C21.4785 9.0782 22.3904 9.93673 23.5152 9.93673Z" fill="#34A853"/>
<path d="M21.4766 10.111H25.5501V8.01904H21.4766V10.111Z" fill="#34A853"/>
<path d="M16.2926 5.927C17.4175 5.927 18.3294 5.06847 18.3294 4.0094C18.3294 2.95034 17.4175 2.0918 16.2926 2.0918C15.1677 2.0918 14.2559 2.95034 14.2559 4.0094C14.2559 5.06847 15.1677 5.927 16.2926 5.927Z" fill="#FF7602"/>
<path d="M16.2926 3.83521C17.4175 3.83521 18.3294 2.97666 18.3294 1.9176C18.3294 0.858542 17.4175 0 16.2926 0C15.1677 0 14.2559 0.858542 14.2559 1.9176C14.2559 2.97666 15.1677 3.83521 16.2926 3.83521Z" fill="#FF7602"/>
<path d="M14.2559 4.00942H18.3294V1.91748H14.2559V4.00942Z" fill="#FF7602"/>
<path d="M16.2926 30.6814C17.4175 30.6814 18.3294 29.8229 18.3294 28.7638C18.3294 27.7047 17.4175 26.8462 16.2926 26.8462C15.1677 26.8462 14.2559 27.7047 14.2559 28.7638C14.2559 29.8229 15.1677 30.6814 16.2926 30.6814Z" fill="#FF7602"/>
<path d="M16.2926 28.5901C17.4175 28.5901 18.3294 27.7316 18.3294 26.6725C18.3294 25.6134 17.4175 24.7549 16.2926 24.7549C15.1677 24.7549 14.2559 25.6134 14.2559 26.6725C14.2559 27.7316 15.1677 28.5901 16.2926 28.5901Z" fill="#FF7602"/>
<path d="M14.2559 28.7643H18.3294V26.6724H14.2559V28.7643Z" fill="#FF7602"/>
<path d="M23.5152 24.5804C24.64 24.5804 25.5519 23.7219 25.5519 22.6628C25.5519 21.6037 24.64 20.7451 23.5152 20.7451C22.3904 20.7451 21.4785 21.6037 21.4785 22.6628C21.4785 23.7219 22.3904 24.5804 23.5152 24.5804Z" fill="#34A853"/>
<path d="M23.5152 17.7815C24.64 17.7815 25.5519 16.923 25.5519 15.8639C25.5519 14.8048 24.64 13.9463 23.5152 13.9463C22.3904 13.9463 21.4785 14.8048 21.4785 15.8639C21.4785 16.923 22.3904 17.7815 23.5152 17.7815Z" fill="#34A853"/>
<path d="M21.4766 22.6626H25.5501V15.8638H21.4766V22.6626Z" fill="#34A853"/>
<path d="M16.2926 11.68C17.4175 11.68 18.3294 10.8214 18.3294 9.76237C18.3294 8.7033 17.4175 7.84473 16.2926 7.84473C15.1677 7.84473 14.2559 8.7033 14.2559 9.76237C14.2559 10.8214 15.1677 11.68 16.2926 11.68Z" fill="#FF7602"/>
<path d="M16.2926 22.8372C17.4175 22.8372 18.3294 21.9786 18.3294 20.9196C18.3294 19.8605 17.4175 19.002 16.2926 19.002C15.1677 19.002 14.2559 19.8605 14.2559 20.9196C14.2559 21.9786 15.1677 22.8372 16.2926 22.8372Z" fill="#FF7602"/>
</svg>
