<svg width="177" height="59" viewBox="0 0 177 59" fill="none" xmlns="http://www.w3.org/2000/svg">
<path d="M75.7067 30.7693C75.7067 39.0976 69.1916 45.2345 61.1961 45.2345C53.2005 45.2345 46.6854 39.0976 46.6854 30.7693C46.6854 22.3824 53.2005 16.3041 61.1961 16.3041C69.1916 16.3041 75.7067 22.3824 75.7067 30.7693ZM69.3546 30.7693C69.3546 25.565 65.5786 22.0041 61.1961 22.0041C56.8135 22.0041 53.0375 25.565 53.0375 30.7693C53.0375 35.9215 56.8135 39.5345 61.1961 39.5345C65.5786 39.5345 69.3546 35.915 69.3546 30.7693Z" fill="#EA4335"/>
<path d="M107.014 30.7693C107.014 39.0976 100.499 45.2345 92.5035 45.2345C84.5079 45.2345 77.9928 39.0976 77.9928 30.7693C77.9928 22.3889 84.5079 16.3041 92.5035 16.3041C100.499 16.3041 107.014 22.3824 107.014 30.7693ZM100.662 30.7693C100.662 25.565 96.886 22.0041 92.5035 22.0041C88.1209 22.0041 84.3449 25.565 84.3449 30.7693C84.3449 35.9215 88.1209 39.5345 92.5035 39.5345C96.886 39.5345 100.662 35.915 100.662 30.7693Z" fill="#FBBC05"/>
<path d="M137.012 17.178V43.1476C137.012 53.8302 130.712 58.1932 123.264 58.1932C116.253 58.1932 112.034 53.5041 110.442 49.6693L115.973 47.3671C116.957 49.7215 119.37 52.4998 123.257 52.4998C128.025 52.4998 130.979 49.5585 130.979 44.0215V41.9411H130.757C129.336 43.6954 126.596 45.228 123.14 45.228C115.907 45.228 109.281 38.928 109.281 30.8215C109.281 22.6563 115.907 16.3041 123.14 16.3041C126.59 16.3041 129.329 17.8367 130.757 19.5389H130.979V17.1845H137.012V17.178ZM131.429 30.8215C131.429 25.728 128.031 22.0041 123.707 22.0041C119.325 22.0041 115.653 25.728 115.653 30.8215C115.653 35.8628 119.325 39.5345 123.707 39.5345C128.031 39.5345 131.429 35.8628 131.429 30.8215Z" fill="#4285F4"/>
<path d="M146.958 1.95684V44.3481H140.762V1.95684H146.958Z" fill="#34A853"/>
<path d="M171.102 35.5297L176.032 38.8166C174.441 41.171 170.606 45.2275 163.98 45.2275C155.763 45.2275 149.626 38.8753 149.626 30.7623C149.626 22.1601 155.815 16.2971 163.27 16.2971C170.776 16.2971 174.448 22.271 175.648 25.4992L176.306 27.1427L156.97 35.1514C158.45 38.0536 160.752 39.534 163.98 39.534C167.215 39.534 169.459 37.9427 171.102 35.5297ZM155.926 30.3253L168.852 24.9579C168.141 23.1514 166.002 21.8927 163.485 21.8927C160.257 21.8927 155.763 24.7427 155.926 30.3253Z" fill="#EA4335"/>
<path d="M23.2333 27.0057V20.8687H43.9134C44.1156 21.9383 44.22 23.2035 44.22 24.5731C44.22 29.1774 42.9613 34.8709 38.9048 38.9274C34.9592 43.0361 29.918 45.2274 23.2398 45.2274C10.8617 45.2274 0.453125 35.1448 0.453125 22.7665C0.453125 10.3883 10.8617 0.305664 23.2398 0.305664C30.0875 0.305664 34.9657 2.99262 38.6309 6.49479L34.3005 10.8252C31.6723 8.36001 28.1115 6.44262 23.2333 6.44262C14.1943 6.44262 7.12478 13.7274 7.12478 22.7665C7.12478 31.8057 14.1943 39.0904 23.2333 39.0904C29.0962 39.0904 32.4353 36.7361 34.5744 34.597C36.3092 32.8622 37.4505 30.3839 37.9005 26.9991L23.2333 27.0057Z" fill="#4285F4"/>
</svg>
