<svg width="32" height="32" viewBox="0 0 32 32" fill="none" xmlns="http://www.w3.org/2000/svg">
<circle cx="16" cy="16" r="16" fill="#282A29"/>
<path fill-rule="evenodd" clip-rule="evenodd" d="M8.5 12.25C8.5 10.1789 10.1789 8.5 12.25 8.5H19.75C21.8211 8.5 23.5 10.1789 23.5 12.25V19.75C23.5 21.8211 21.8211 23.5 19.75 23.5H12.25C10.1789 23.5 8.5 21.8211 8.5 19.75V12.25ZM12.25 10C11.0074 10 10 11.0074 10 12.25V19.75C10 20.9926 11.0074 22 12.25 22H19.75C20.9926 22 22 20.9926 22 19.75V12.25C22 11.0074 20.9926 10 19.75 10H12.25Z" fill="#1DD75F"/>
<path fill-rule="evenodd" clip-rule="evenodd" d="M19.75 11.25C19.6119 11.25 19.5 11.3619 19.5 11.5C19.5 11.6381 19.6119 11.75 19.75 11.75C19.8881 11.75 20 11.6381 20 11.5C20 11.3619 19.8881 11.25 19.75 11.25ZM19 11.5C19 11.0858 19.3358 10.75 19.75 10.75C20.1642 10.75 20.5 11.0858 20.5 11.5C20.5 11.9142 20.1642 12.25 19.75 12.25C19.3358 12.25 19 11.9142 19 11.5Z" fill="#1DD75F"/>
<path d="M12.25 16.75C12.25 14.6789 13.9289 13 16 13C18.0711 13 19.75 14.6789 19.75 16.75C19.75 18.8211 18.0711 20.5 16 20.5C13.9289 20.5 12.25 18.8211 12.25 16.75Z" stroke="#1DD75F" stroke-width="2" stroke-linecap="round" stroke-linejoin="round"/>
</svg>
