<svg width="180" height="40" viewBox="0 0 180 40" fill="none" xmlns="http://www.w3.org/2000/svg">
<path d="M31.547 0H22.7224C22.7372 3.53591 21.9195 7.02566 20.3356 10.187C18.7517 13.3483 16.4459 16.0925 13.6049 18.1975L10.1126 20.8111L23.6311 39.264H34.7689L22.3168 22.2831C25.2565 19.3668 27.5866 15.8948 29.1712 12.0691C30.7559 8.24351 31.5635 4.14081 31.547 0Z" fill="#000008"/>
<path d="M0 39.264H9.03491V0H0V39.264Z" fill="#000008"/>
<path d="M37.3938 39.2485H45.903V0.00703049H37.3938V39.2485Z" fill="#000008"/>
<path d="M120.534 11.3783C117.29 11.3783 114.218 12.3847 112.168 15.1335V12.1068H104.072V39.2491H112.266V24.9795C112.266 20.8488 115.029 18.8285 118.364 18.8285C121.939 18.8285 123.989 20.9615 123.989 24.9194V39.2491H132.108V21.9754C132.108 15.6592 127.083 11.3633 120.534 11.3633V11.3783Z" fill="#000008"/>
<path d="M64.221 32.6623C62.3192 32.7107 60.4758 32.0024 59.0959 30.6928C57.7159 29.3832 56.912 27.5794 56.8609 25.6777C56.9651 23.7951 57.7863 22.0239 59.1559 20.728C60.5254 19.4321 62.3393 18.71 64.2248 18.71C66.1103 18.71 67.9241 19.4321 69.2937 20.728C70.6632 22.0239 71.4845 23.7951 71.5886 25.6777C71.5375 27.5808 70.7327 29.3857 69.3511 30.6955C67.9694 32.0053 66.1242 32.7127 64.221 32.6623ZM71.6112 12.1065V13.8414C69.758 12.5788 67.6342 11.769 65.4108 11.4772C63.1875 11.1854 60.9267 11.4198 58.8104 12.1615C56.6942 12.9031 54.7817 14.1313 53.2268 15.7472C51.672 17.363 50.5184 19.3214 49.8587 21.4646C49.1991 23.6078 49.0519 25.876 49.4291 28.0865C49.8062 30.2969 50.6971 32.388 52.0301 34.1912C53.3631 35.9945 55.1008 37.4595 57.1035 38.4684C59.1061 39.4773 61.3177 40.0019 63.5601 39.9998C66.4297 40.0168 69.2369 39.1631 71.6112 37.5515V39.2864H79.7449V12.1065H71.6112Z" fill="#000008"/>
<path d="M92.3183 15.6444V12.107H83.9969V39.2494H92.3333V26.5794C92.3333 22.2985 96.9672 20.0004 100.189 20.0004H100.279V12.107C96.9822 12.107 93.9481 13.519 92.3183 15.6444Z" fill="#000008"/>
<path d="M149.967 32.6623C148.065 32.7107 146.221 32.0024 144.841 30.6928C143.461 29.3832 142.658 27.5794 142.606 25.6777C142.711 23.7951 143.532 22.0239 144.901 20.728C146.271 19.4321 148.085 18.71 149.97 18.71C151.856 18.71 153.67 19.4321 155.039 20.728C156.409 22.0239 157.23 23.7951 157.334 25.6777C157.283 27.5808 156.478 29.3857 155.097 30.6955C153.715 32.0053 151.87 32.7127 149.967 32.6623ZM157.364 12.1065V13.8414C155.212 12.3749 152.7 11.5232 150.1 11.3778C147.499 11.2324 144.908 11.7989 142.606 13.0163C140.303 14.2337 138.376 16.056 137.032 18.2869C135.688 20.5179 134.978 23.0731 134.978 25.6777C134.978 28.2822 135.688 30.8374 137.032 33.0684C138.376 35.2994 140.303 37.1216 142.606 38.339C144.908 39.5564 147.499 40.1229 150.1 39.9775C152.7 39.8322 155.212 38.9804 157.364 37.5139V39.2488H165.49V12.1065H157.364Z" fill="#000008"/>
<path d="M174.121 29.6211C173.11 29.6196 172.122 29.9179 171.281 30.4781C170.441 31.0384 169.785 31.8355 169.397 32.7685C169.009 33.7016 168.907 34.7287 169.103 35.7198C169.3 36.711 169.785 37.6217 170.499 38.3367C171.213 39.0517 172.123 39.5388 173.114 39.7365C174.105 39.9341 175.132 39.8334 176.066 39.4471C176.999 39.0608 177.798 38.4062 178.359 37.5662C178.921 36.7262 179.22 35.7385 179.22 34.7281C179.221 34.0578 179.09 33.3939 178.834 32.7743C178.578 32.1548 178.203 31.5917 177.729 31.1174C177.256 30.643 176.693 30.2667 176.074 30.01C175.455 29.7533 174.791 29.6211 174.121 29.6211Z" fill="#000008"/>
</svg>
