<svg width="32" height="32" viewBox="0 0 32 32" fill="none" xmlns="http://www.w3.org/2000/svg">
<circle cx="16" cy="16" r="16" fill="#282A29"/>
<rect opacity="0.01" x="24" y="23" width="16" height="16" transform="rotate(180 24 23)" fill="#00BF63"/>
<path d="M18.0992 12.6001C17.0673 12.5966 16.0763 13.0036 15.3447 13.7314C14.6131 14.4593 14.201 15.4482 14.1992 16.4801V20.4001C14.1992 20.5592 14.2624 20.7119 14.375 20.8244C14.4875 20.9369 14.6401 21.0001 14.7992 21.0001H16.1992C16.5306 21.0001 16.7992 20.7315 16.7992 20.4001V16.4801C16.799 16.1126 16.9551 15.7623 17.2286 15.5167C17.5021 15.2712 17.8672 15.1537 18.2326 15.1935C18.9032 15.2779 19.4045 15.8509 19.3992 16.5268V20.4001C19.3992 20.7315 19.6678 21.0001 19.9992 21.0001H21.3992C21.7306 21.0001 21.9992 20.7315 21.9992 20.4001V16.4801C21.9975 15.4482 21.5854 14.4593 20.8538 13.7314C20.1222 13.0036 19.1312 12.5966 18.0992 12.6001V12.6001Z" fill="#00BF63"/>
<rect x="10" y="13.2002" width="3" height="7.8" rx="0.9" fill="#00BF63"/>
<circle cx="11.5" cy="10.5" r="1.5" fill="#00BF63"/>
</svg>
