<svg width="32" height="32" viewBox="0 0 32 32" fill="none" xmlns="http://www.w3.org/2000/svg">
<circle cx="16" cy="16" r="16" fill="#282A29"/>
<path opacity="0.01" d="M7 7H25V25H7" fill="#00BF63"/>
<path d="M13.0593 22.0001C15.2998 22.0751 17.4755 21.2408 19.0914 19.687C20.7074 18.1331 21.6263 15.9919 21.6393 13.7501C22.1475 13.1212 22.5249 12.397 22.7493 11.6201C22.7835 11.4947 22.7409 11.3609 22.6405 11.2784C22.5402 11.1958 22.4007 11.1798 22.2843 11.2376C21.739 11.5 21.0872 11.3854 20.6643 10.9526C20.1323 10.3701 19.3872 10.0278 18.5987 10.0038C17.8103 9.97977 17.0457 10.2761 16.4793 10.8251C15.6985 11.5812 15.3712 12.6913 15.6168 13.7501C13.1043 13.9001 11.3793 12.7076 9.99925 11.0726C9.91454 10.9767 9.78112 10.9399 9.65922 10.9789C9.53733 11.0179 9.45003 11.1253 9.43675 11.2526C8.89834 14.2392 10.2744 17.2456 12.8868 18.7901C12.0315 19.771 10.8304 20.3836 9.53425 20.5001C9.39189 20.5237 9.28029 20.6352 9.25656 20.7776C9.23284 20.9199 9.30224 21.0616 9.42925 21.1301C10.5569 21.6936 11.7987 21.9912 13.0593 22.0001" fill="#00BF63"/>
</svg>
