<svg width="211" height="60" viewBox="0 0 211 60" fill="none" xmlns="http://www.w3.org/2000/svg">
<path d="M45.1261 11.3869C45.0841 11.0928 44.832 10.9247 44.6219 10.9247C44.4118 10.9247 40.2522 10.8407 40.2522 10.8407C40.2522 10.8407 36.7648 7.47937 36.4286 7.10121C36.0925 6.76508 35.4202 6.84911 35.1681 6.93315C35.1681 6.93315 34.4958 7.14323 33.4034 7.47937C33.2353 6.89113 32.9412 6.17685 32.5631 5.42054C31.3446 3.0676 29.4958 1.8071 27.311 1.8071C27.1429 1.8071 27.0168 1.8071 26.8488 1.84911C26.7647 1.76508 26.7227 1.68105 26.6387 1.63903C25.6723 0.630627 24.4538 0.126425 22.9832 0.168442C20.1681 0.252476 17.353 2.3113 15.042 5.92474C13.4454 8.48777 12.2269 11.681 11.8488 14.16C8.61346 15.1684 6.34455 15.8827 6.26051 15.8827C4.62185 16.3869 4.57984 16.4289 4.36975 17.9836C4.28572 19.16 0 52.3113 0 52.3113L35.9664 58.5298L51.5547 54.6642C51.5127 54.6642 45.1681 11.681 45.1261 11.3869ZM31.5967 8.0676C30.7563 8.3197 29.832 8.61382 28.8236 8.94995C28.8236 7.52138 28.6135 5.50458 27.9832 3.8239C30.1261 4.16004 31.1765 6.59701 31.5967 8.0676ZM26.9328 9.49617C25.042 10.0844 22.9832 10.7147 20.9244 11.3449C21.5126 9.11802 22.6051 6.93315 23.9496 5.46256C24.4538 4.91634 25.1681 4.32811 25.9664 3.99197C26.8068 5.63063 26.9748 7.94155 26.9328 9.49617ZM23.0673 2.0592C23.7395 2.0592 24.2857 2.18525 24.7479 2.52138C23.9916 2.89953 23.2353 3.48777 22.5631 4.24407C20.7563 6.17685 19.3698 9.16004 18.8236 12.0592C17.1009 12.6054 15.4202 13.1096 13.9076 13.5718C14.916 8.99197 18.7395 2.18525 23.0673 2.0592Z" fill="#95BF47"/>
<path d="M44.6219 10.9247C44.4118 10.9247 40.2522 10.8407 40.2522 10.8407C40.2522 10.8407 36.7648 7.47937 36.4286 7.10121C36.3026 6.97516 36.1343 6.89109 35.9663 6.89109L35.9664 58.5298L51.5547 54.6642C51.5547 54.6642 45.21 11.681 45.168 11.3869C45.0839 11.0928 44.832 10.9247 44.6219 10.9247Z" fill="#5E8E3E"/>
<path d="M27.311 18.95L25.5042 25.7147C25.5042 25.7147 23.4874 24.7903 21.0925 24.9584C17.5631 25.1684 17.5631 27.3953 17.5631 27.9416C17.7731 30.9668 25.7143 31.639 26.1765 38.7399C26.5126 44.3281 23.2353 48.1516 18.4454 48.4458C12.7311 48.7399 9.57985 45.3785 9.57985 45.3785L10.7983 40.2105C10.7983 40.2105 13.9916 42.6054 16.5126 42.4373C18.1513 42.3533 18.7815 40.9668 18.6975 40.0424C18.4454 36.0928 11.9748 36.3449 11.5546 29.8323C11.2185 24.3701 14.7899 18.8659 22.6891 18.3617C25.7563 18.1516 27.311 18.95 27.311 18.95Z" fill="white"/>
<path d="M72.6471 33.3617C70.8404 32.3953 69.916 31.555 69.916 30.4205C69.916 28.992 71.2186 28.0676 73.2354 28.0676C75.5883 28.0676 77.6892 29.034 77.6892 29.034L79.3278 23.992C79.3278 23.992 77.8152 22.8155 73.3614 22.8155C67.1429 22.8155 62.8152 26.3869 62.8152 31.3869C62.8152 34.2441 64.832 36.3869 67.5211 37.9416C69.706 39.16 70.4623 40.0424 70.4623 41.3449C70.4623 42.6895 69.3698 43.7819 67.353 43.7819C64.3698 43.7819 61.5127 42.2273 61.5127 42.2273L59.748 47.2693C59.748 47.2693 62.353 49.034 66.7648 49.034C73.1513 49.034 77.7732 45.8827 77.7732 40.2105C77.7312 37.1432 75.4203 34.9584 72.6471 33.3617Z" fill="white"/>
<path d="M98.1094 22.7315C94.9581 22.7315 92.4791 24.2441 90.5884 26.513L90.5043 26.471L93.2354 12.1852H86.1346L79.2018 48.5718H86.3026L88.6556 36.1348C89.5799 31.4289 92.0169 28.5298 94.2858 28.5298C95.8825 28.5298 96.5127 29.6222 96.5127 31.1768C96.5127 32.1432 96.4287 33.3617 96.2186 34.3281L93.5295 48.5718H100.63L103.403 33.8659C103.698 32.3113 103.908 30.4626 103.908 29.2021C103.95 25.1684 101.849 22.7315 98.1094 22.7315Z" fill="white"/>
<path d="M120.042 22.7313C111.471 22.7313 105.799 30.4624 105.799 39.0758C105.799 44.58 109.202 49.0338 115.589 49.0338C123.992 49.0338 129.664 41.5128 129.664 32.6893C129.706 27.6053 126.723 22.7313 120.042 22.7313ZM116.555 43.6137C114.118 43.6137 113.11 41.5548 113.11 38.9498C113.11 34.8742 115.21 28.2355 119.076 28.2355C121.597 28.2355 122.437 30.4204 122.437 32.5212C122.437 36.891 120.294 43.6137 116.555 43.6137Z" fill="white"/>
<path d="M147.899 22.7313C143.11 22.7313 140.378 26.975 140.378 26.975H140.294L140.715 23.1515H134.412C134.118 25.7145 133.53 29.6641 132.983 32.6053L128.025 58.6557H135.126L137.101 48.1095H137.269C137.269 48.1095 138.74 49.0338 141.429 49.0338C149.79 49.0338 155.252 40.4624 155.252 31.8069C155.252 27.017 153.11 22.7313 147.899 22.7313ZM141.093 43.6977C139.244 43.6977 138.152 42.6473 138.152 42.6473L139.328 36.0086C140.168 31.5548 142.479 28.6137 144.958 28.6137C147.143 28.6137 147.815 30.6305 147.815 32.5212C147.815 37.1431 145.084 43.6977 141.093 43.6977Z" fill="white"/>
<path d="M165.42 12.5214C163.151 12.5214 161.345 14.3281 161.345 16.639C161.345 18.7399 162.689 20.2105 164.706 20.2105H164.79C167.017 20.2105 168.908 18.6979 168.95 16.0928C168.95 14.034 167.563 12.5214 165.42 12.5214Z" fill="white"/>
<path d="M155.462 48.5298H162.563L167.395 23.3197H160.252L155.462 48.5298Z" fill="white"/>
<path d="M185.504 23.2777H180.546L180.799 22.1012C181.219 19.6642 182.647 17.5214 185.042 17.5214C186.303 17.5214 187.311 17.8995 187.311 17.8995L188.698 12.3113C188.698 12.3113 187.479 11.681 184.832 11.681C182.311 11.681 179.79 12.3953 177.857 14.034C175.42 16.0928 174.286 19.076 173.74 22.1012L173.53 23.2777H170.21L169.16 28.6558H172.479L168.698 48.5718H175.799L179.58 28.6558H184.496L185.504 23.2777Z" fill="white"/>
<path d="M202.647 23.3197C202.647 23.3197 198.194 34.5382 196.219 40.6726H196.135C196.009 38.6979 194.37 23.3197 194.37 23.3197H186.891L191.177 46.471C191.261 46.9752 191.219 47.3113 191.009 47.6474C190.168 49.2441 188.782 50.7987 187.143 51.9331C185.799 52.8995 184.286 53.5298 183.11 53.95L185.084 60.0004C186.513 59.7063 189.538 58.4878 192.059 56.1348C195.295 53.1096 198.32 48.4037 201.387 42.0172L210.084 23.3197H202.647Z" fill="white"/>
</svg>
