<svg width="346" height="50" viewBox="0 0 346 50" fill="none" xmlns="http://www.w3.org/2000/svg">
<path fill-rule="evenodd" clip-rule="evenodd" d="M12.8209 26.4706L32.1824 6.87196C33.4979 5.54039 35.2482 4.80821 37.1138 4.80821C38.9781 4.80821 40.7284 5.5397 42.0425 6.87126L43.551 8.39821L46.5686 5.34362L45.0601 3.81667C42.941 1.67157 40.1191 0.490196 37.1125 0.490196C34.1072 0.490892 31.2846 1.67226 29.1655 3.81806L9.80392 23.416L12.8209 26.4706Z" fill="#000008"/>
<path fill-rule="evenodd" clip-rule="evenodd" d="M38.7255 13.382L35.6936 10.3319L16.2411 29.9015C13.5094 32.6496 9.0647 32.6503 6.3337 29.9029C3.602 27.1549 3.602 22.6828 6.3337 19.9348L23.1193 3.04938L20.0874 0L3.30247 16.8854C-1.10082 21.3151 -1.10082 28.5233 3.30247 32.9523C5.43164 35.0942 8.26686 36.2745 11.2864 36.2745C14.3065 36.2745 17.1431 35.0935 19.2723 32.9516L38.7255 13.382Z" fill="#000008"/>
<path fill-rule="evenodd" clip-rule="evenodd" d="M57.9715 17.0471C55.843 14.9051 53.0078 13.7255 49.9869 13.7255C46.9667 13.7262 44.13 14.9058 42.0009 17.0485L22.549 36.6178L25.5796 39.6679L45.0328 20.0979C47.7652 17.3498 52.2092 17.3505 54.9402 20.0972C56.2612 21.4261 56.9887 23.1953 56.9887 25.0803C56.9887 26.9661 56.2612 28.7359 54.9402 30.0648L38.1552 46.9506L41.1871 50L57.9715 33.1149C62.3755 28.6852 62.3755 21.4768 57.9715 17.0471Z" fill="#000008"/>
<path fill-rule="evenodd" clip-rule="evenodd" d="M48.4537 23.5294L29.0925 43.128C26.373 45.8795 21.95 45.8809 19.2319 43.1287L17.7235 41.6018L14.7059 44.6564L16.2143 46.1833C18.3334 48.3284 21.1553 49.5098 24.1625 49.5098C27.1678 49.5091 29.9896 48.3277 32.1094 46.1819L51.4706 26.584L48.4537 23.5294Z" fill="#000008"/>
<path fill-rule="evenodd" clip-rule="evenodd" d="M79.1544 30.1032C79.4042 31.3537 79.9894 32.3328 80.9088 33.0382C81.8276 33.745 83.0365 34.0977 84.5357 34.0977C86.0108 34.0977 87.1511 33.7506 87.9573 33.0557C88.7635 32.3615 89.1663 31.4468 89.1663 30.3117C89.1663 29.7561 89.0586 29.2872 88.8431 28.9051C88.627 28.523 88.3265 28.199 87.9409 27.9324C87.5539 27.6672 87.0777 27.4404 86.5103 27.2557C85.9429 27.0702 85.3069 26.8736 84.6029 26.665L82.7648 26.1444C81.6746 25.8435 80.6982 25.4789 79.8357 25.0499C78.9726 24.6216 78.235 24.1177 77.6223 23.539C77.0096 22.9602 76.5438 22.2947 76.2261 21.5417C75.9084 20.7894 75.7492 19.9147 75.7492 18.9195C75.7492 17.8775 75.9537 16.9167 76.3626 16.0363C76.7709 15.1574 77.3499 14.4037 78.0992 13.7788C78.8484 13.1538 79.7562 12.6619 80.8238 12.3022C81.89 11.9446 83.0928 11.7647 84.4327 11.7647C86.9529 11.7647 88.9501 12.3721 90.4267 13.5877C91.9018 14.804 92.7643 16.4303 93.0147 18.4682L88.9282 18.8153C88.6778 17.7733 88.179 16.9629 87.4297 16.3841C86.6805 15.8054 85.6362 15.5157 84.2969 15.5157C83.0482 15.5157 82.0718 15.811 81.3685 16.4016C80.6639 16.9923 80.3119 17.7509 80.3119 18.6767C80.3119 19.2093 80.4148 19.6543 80.6193 20.0133C80.8238 20.3731 81.1181 20.6852 81.5044 20.9511C81.89 21.2177 82.3614 21.455 82.9171 21.6628C83.4735 21.8713 84.1034 22.0925 84.8074 22.3234L86.5446 22.8791C87.6335 23.2262 88.616 23.5908 89.4894 23.9729C90.3636 24.355 91.1073 24.8126 91.72 25.3452C92.3334 25.8777 92.8048 26.5146 93.1334 27.2557C93.4628 27.9968 93.6274 28.9114 93.6274 29.9996C93.6274 31.1578 93.4003 32.2173 92.9468 33.1774C92.4919 34.139 91.8572 34.955 91.0394 35.6261C90.2222 36.2979 89.252 36.8193 88.1275 37.1888C87.0036 37.5589 85.7611 37.7451 84.3991 37.7451C81.879 37.7451 79.7788 37.1433 78.0992 35.9389C76.4189 34.7345 75.3863 32.9171 75 30.4853L79.1544 30.1032Z" fill="#000008"/>
<path fill-rule="evenodd" clip-rule="evenodd" d="M111.206 15.9886C109.981 15.9886 108.886 16.2192 107.922 16.6789C106.957 17.1393 106.14 17.7774 105.471 18.5938C104.801 19.4109 104.29 20.3778 103.938 21.4923C103.587 22.6089 103.411 23.8224 103.411 25.1333C103.411 26.445 103.592 27.664 103.956 28.7918C104.318 29.9189 104.835 30.8962 105.505 31.7251C106.173 32.5527 106.991 33.2026 107.956 33.6749C108.92 34.1457 110.015 34.3812 111.241 34.3812C112.466 34.3812 113.561 34.1576 114.526 33.709C115.49 33.2604 116.307 32.6335 116.977 31.8275C117.646 31.023 118.162 30.0505 118.525 28.9123C118.888 27.7734 119.07 26.5251 119.07 25.1682C119.07 23.8335 118.888 22.6027 118.525 21.4756C118.162 20.3492 117.646 19.3823 116.977 18.5771C116.307 17.7725 115.484 17.1393 114.508 16.6789C113.533 16.2192 112.432 15.9886 111.206 15.9886ZM111.241 12.2549C113.079 12.2549 114.758 12.5718 116.279 13.2057C117.799 13.8396 119.092 14.7264 120.16 15.8674C121.226 17.0091 122.053 18.3744 122.645 19.9647C123.234 21.555 123.529 23.2951 123.529 25.1849C123.529 27.1451 123.217 28.9137 122.594 30.4922C121.968 32.0713 121.079 33.4366 119.921 34.5888L123.189 38.4959V39.7059H119.036L116.755 36.8715C115.961 37.24 115.109 37.5277 114.202 37.7352C113.294 37.9428 112.318 38.0466 111.275 38.0466C109.391 38.0466 107.695 37.729 106.186 37.0958C104.676 36.4619 103.393 35.5744 102.339 34.4334C101.283 33.2924 100.466 31.9334 99.8879 30.3535C99.309 28.7751 99.0196 27.0524 99.0196 25.1849C99.0196 23.2951 99.309 21.5613 99.8879 19.9814C100.466 18.4036 101.288 17.0432 102.356 15.9022C103.422 14.7612 104.71 13.8682 106.219 13.2225C107.729 12.5781 109.402 12.2549 111.241 12.2549Z" fill="#000008"/>
<path fill-rule="evenodd" clip-rule="evenodd" d="M140.196 34.1681C141.938 34.1681 143.294 33.6188 144.267 32.5189C145.239 31.4189 145.725 29.7347 145.725 27.4655V12.2549H150V27.5697C150 29.3757 149.774 30.9207 149.321 32.2061C148.868 33.4908 148.224 34.5446 147.388 35.3667C146.551 36.1889 145.522 36.7907 144.301 37.1727C143.08 37.5548 141.711 37.7451 140.196 37.7451C138.657 37.7451 137.284 37.5548 136.075 37.1727C134.864 36.7907 133.841 36.1889 133.004 35.3667C132.168 34.5446 131.523 33.4908 131.07 32.2061C130.618 30.9207 130.392 29.3757 130.392 27.5697V12.2549H134.667V27.4655C134.667 29.7347 135.153 31.4189 136.125 32.5189C137.098 33.6188 138.454 34.1681 140.196 34.1681Z" fill="#000008"/>
<path fill-rule="evenodd" clip-rule="evenodd" d="M162.246 26.5702H170.425L169.079 22.6787C168.549 21.1546 168.124 19.9139 167.802 18.9585C167.48 18.0025 167.192 17.1607 166.939 16.4323H165.87C165.732 16.8188 165.593 17.2061 165.456 17.5926C165.317 17.9798 165.162 18.4124 164.99 18.8897C164.817 19.3678 164.628 19.9139 164.42 20.5287C164.213 21.1422 163.96 21.8596 163.661 22.6787L162.246 26.5702ZM154.412 36.0602L163.213 12.7451H169.735L178.431 36.0602V37.2549H174.152L171.668 30.2567H160.935L158.45 37.2549H154.412V36.0602Z" fill="#000008"/>
<path fill-rule="evenodd" clip-rule="evenodd" d="M188.061 23.9418H191.787C193.428 23.9418 194.721 23.6426 195.666 23.0456C196.612 22.4479 197.086 21.4726 197.086 20.1183C197.086 18.7427 196.606 17.7846 195.649 17.2433C194.693 16.7027 193.405 16.4317 191.787 16.4317H188.061V23.9418ZM202.451 37.2549H198.315L190.83 27.6284H188.061V37.2549H183.823V12.7451H191.787C193.04 12.7451 194.231 12.8304 195.358 13.001C196.486 13.1715 197.506 13.5643 198.418 14.1785C200.354 15.4523 201.324 17.3754 201.324 19.9457C201.324 21.0613 201.158 22.0339 200.827 22.8647C200.497 23.6949 200.058 24.3999 199.512 24.9804C198.964 25.5609 198.332 26.0327 197.615 26.3959C196.897 26.7604 196.15 27.0335 195.376 27.2151L202.451 36.0595V37.2549Z" fill="#000008"/>
<path fill-rule="evenodd" clip-rule="evenodd" d="M207.843 12.7451H223.779V16.4997H212.059V22.9174H222.957V26.6039H212.059V33.4996H224.02V37.2549H207.843V12.7451Z" fill="#000008"/>
<path fill-rule="evenodd" clip-rule="evenodd" d="M233.567 30.1032C233.816 31.3537 234.401 32.3328 235.32 33.0382C236.24 33.745 237.449 34.0977 238.947 34.0977C240.422 34.0977 241.562 33.7506 242.369 33.0557C243.175 32.3615 243.578 31.4468 243.578 30.3117C243.578 29.7561 243.47 29.2872 243.254 28.9051C243.039 28.523 242.738 28.199 242.352 27.9324C241.966 27.6672 241.489 27.4404 240.922 27.2557C240.354 27.0702 239.718 26.8736 239.014 26.665L237.176 26.1444C236.087 25.8435 235.11 25.4789 234.247 25.0499C233.384 24.6216 232.647 24.1177 232.035 23.539C231.421 22.9602 230.955 22.2947 230.638 21.5417C230.32 20.7894 230.161 19.9147 230.161 18.9195C230.161 17.8775 230.365 16.9167 230.774 16.0363C231.182 15.1574 231.762 14.4037 232.511 13.7788C233.26 13.1538 234.168 12.6619 235.235 12.3022C236.301 11.9446 237.505 11.7647 238.844 11.7647C241.364 11.7647 243.361 12.3721 244.838 13.5877C246.313 14.804 247.176 16.4303 247.426 18.4682L243.339 18.8153C243.09 17.7733 242.59 16.9629 241.842 16.3841C241.092 15.8054 240.047 15.5157 238.708 15.5157C237.46 15.5157 236.483 15.811 235.78 16.4016C235.076 16.9923 234.724 17.7509 234.724 18.6767C234.724 19.2093 234.826 19.6543 235.031 20.0133C235.235 20.3731 235.53 20.6852 235.916 20.9511C236.301 21.2177 236.773 21.455 237.329 21.6628C237.886 21.8713 238.515 22.0925 239.219 22.3234L240.956 22.8791C242.045 23.2262 243.027 23.5908 243.901 23.9729C244.775 24.355 245.519 24.8126 246.131 25.3452C246.744 25.8777 247.216 26.5146 247.545 27.2557C247.874 27.9968 248.039 28.9114 248.039 29.9996C248.039 31.1578 247.812 32.2173 247.358 33.1774C246.903 34.139 246.268 34.955 245.45 35.6261C244.633 36.2979 243.663 36.8193 242.539 37.1888C241.415 37.5589 240.172 37.7451 238.81 37.7451C236.291 37.7451 234.19 37.1433 232.511 35.9389C230.831 34.7345 229.798 32.9171 229.412 30.4853L233.567 30.1032Z" fill="#000008"/>
<path fill-rule="evenodd" clip-rule="evenodd" d="M258.755 24.1465H262.924C263.689 24.1465 264.39 24.0846 265.027 23.9601C265.663 23.8363 266.22 23.6279 266.694 23.3342C267.17 23.0412 267.54 22.6464 267.807 22.1498C268.073 21.6539 268.206 21.0446 268.206 20.3224C268.206 19.5782 268.073 18.953 267.807 18.4454C267.54 17.9379 267.174 17.5376 266.712 17.2439C266.248 16.9502 265.698 16.7418 265.062 16.618C264.424 16.4942 263.735 16.4316 262.994 16.4316H258.755V24.1465ZM254.412 12.7451H263.515C265.206 12.7451 266.625 12.9384 267.772 13.3256C268.918 13.7121 269.845 14.2465 270.552 14.9302C271.257 15.6125 271.768 16.4144 272.08 17.3367C272.392 18.2577 272.549 19.2536 272.549 20.3231C272.549 21.5982 272.335 22.7069 271.906 23.6513C271.478 24.5956 270.858 25.3748 270.048 25.9897C269.236 26.6039 268.252 27.0647 267.094 27.3722C265.935 27.6796 264.627 27.833 263.168 27.833H258.755V37.2549H254.412V12.7451Z" fill="#000008"/>
<path fill-rule="evenodd" clip-rule="evenodd" d="M281.364 26.5702H289.543L288.197 22.6787C287.667 21.1546 287.241 19.9139 286.919 18.9585C286.597 18.0025 286.31 17.1607 286.057 16.4323H284.987C284.849 16.8188 284.711 17.2061 284.573 17.5926C284.435 17.9798 284.279 18.4124 284.107 18.8897C283.934 19.3678 283.745 19.9139 283.538 20.5287C283.331 21.1422 283.078 21.8596 282.779 22.6787L281.364 26.5702ZM273.529 36.0602L282.33 12.7451H288.852L297.549 36.0602V37.2549H293.27L290.785 30.2567H280.052L277.567 37.2549H273.529V36.0602Z" fill="#000008"/>
<path fill-rule="evenodd" clip-rule="evenodd" d="M323.529 30.7746C323.14 31.7316 322.629 32.632 322 33.4768C321.368 34.3215 320.606 35.0616 319.712 35.6935C318.819 36.3255 317.781 36.8253 316.6 37.193C315.42 37.5606 314.107 37.7451 312.663 37.7451C310.829 37.7451 309.161 37.4257 307.66 36.7875C306.158 36.1507 304.877 35.2674 303.815 34.1404C302.754 33.0121 301.934 31.6689 301.356 30.1082C300.778 28.5482 300.49 26.8567 300.49 25.0337C300.49 23.2121 300.778 21.5206 301.356 19.9599C301.934 18.3999 302.758 17.0499 303.832 15.9105C304.905 14.7725 306.193 13.8776 307.694 13.229C309.196 12.5792 310.874 12.2549 312.732 12.2549C315.436 12.2549 317.701 12.8821 319.523 14.1343C321.346 15.3866 322.636 17.0499 323.392 19.1228L319.025 19.9764C318.429 18.7242 317.597 17.7383 316.532 17.021C315.465 16.3036 314.176 15.9449 312.663 15.9449C311.448 15.9449 310.365 16.1776 309.413 16.643C308.462 17.1084 307.66 17.7493 307.006 18.5665C306.353 19.383 305.854 20.3475 305.51 21.46C305.167 22.5719 304.995 23.7629 304.995 25.0337C304.995 26.3273 305.172 27.5245 305.528 28.6253C305.883 29.7268 306.399 30.6789 307.075 31.4851C307.751 32.2906 308.571 32.9198 309.534 33.3735C310.496 33.8279 311.597 34.0551 312.835 34.0551C314.44 34.0551 315.763 33.6675 316.807 32.893C317.85 32.1185 318.658 31.1732 319.231 30.0566L323.529 30.7746Z" fill="#000008"/>
<path fill-rule="evenodd" clip-rule="evenodd" d="M328.843 12.7451H344.779V16.4997H333.059V22.9174H343.957V26.6039H333.059V33.4996H345.019V37.2549H328.843V12.7451Z" fill="#000008"/>
</svg>
