<svg width="88" height="72" viewBox="0 0 88 72" fill="none" xmlns="http://www.w3.org/2000/svg">
<path d="M78.3339 18.1022C78.3868 18.8681 78.3869 19.634 78.3869 20.4069C78.3869 43.9587 60.4574 71.121 27.6727 71.121V71.1069C17.988 71.121 8.5045 68.3469 0.351562 63.1163C1.7598 63.2857 3.17509 63.3704 4.59392 63.374C12.6198 63.381 20.4163 60.6881 26.7304 55.7292C19.1033 55.5845 12.4151 50.6116 10.0786 43.3516C12.7504 43.8669 15.5033 43.761 18.1257 43.0445C9.81039 41.3645 3.82803 34.0587 3.82803 25.574C3.82803 25.4963 3.82803 25.4222 3.82803 25.3481C6.30568 26.7281 9.0798 27.494 11.9174 27.5787C4.08568 22.3445 1.67156 11.9257 6.40097 3.77983C15.4504 14.9151 28.8021 21.6845 43.1351 22.401C41.6986 16.2104 43.661 9.72336 48.2916 5.3716C55.4704 -1.37664 66.761 -1.03075 73.5092 6.14454C77.501 5.35748 81.3269 3.89278 84.828 1.81748C83.4974 5.94336 80.7127 9.44807 76.9927 11.6751C80.5257 11.2587 83.9774 10.3128 87.228 8.86925C84.8351 12.4551 81.821 15.5787 78.3339 18.1022Z" fill="white"/>
</svg>
