<svg width="33" height="32" viewBox="0 0 33 32" fill="none" xmlns="http://www.w3.org/2000/svg">
<path fill-rule="evenodd" clip-rule="evenodd" d="M6.44447 6.31345C4.46395 6.41157 2.87304 7.96233 2.74451 9.94111C2.62136 11.8369 2.5 14.1697 2.5 16C2.5 17.8303 2.62136 20.1631 2.74451 22.0589C2.87304 24.0377 4.46395 25.5884 6.44447 25.6866C9.31239 25.8286 13.4115 26 16.5 26C19.5885 26 23.6876 25.8286 26.5555 25.6866C28.5361 25.5884 30.127 24.0377 30.2555 22.0589C30.3786 20.1631 30.5 17.8303 30.5 16C30.5 14.1697 30.3786 11.8369 30.2555 9.94111C30.127 7.96233 28.5361 6.41157 26.5555 6.31345C23.6876 6.17136 19.5885 6 16.5 6C13.4115 6 9.31239 6.17136 6.44447 6.31345ZM21.5 16L13.5 20V12L21.5 16Z" fill="#FC0404"/>
</svg>
